<mxfile host="app.diagrams.net" agent="Mozilla/5.0 (Windows NT 10.0; Win64; x64) AppleWebKit/537.36 (KHTML, like Gecko) Chrome/133.0.0.0 Safari/537.36" version="26.0.16">
  <diagram name="Page-1" id="fr82chmS0VjZSK2y9uVk">
    <mxGraphModel dx="2625" dy="1438" grid="1" gridSize="10" guides="1" tooltips="1" connect="1" arrows="1" fold="1" page="1" pageScale="1" pageWidth="1169" pageHeight="827" math="0" shadow="0">
      <root>
        <mxCell id="0" />
        <mxCell id="1" parent="0" />
        <mxCell id="60MkNcsTgpI80KWqYa-A-1" value="&lt;font style=&quot;font-size: 24px;&quot;&gt;CVO App&lt;/font&gt;" style="rounded=0;whiteSpace=wrap;html=1;" vertex="1" parent="1">
          <mxGeometry x="480" y="40" width="210" height="60" as="geometry" />
        </mxCell>
        <mxCell id="60MkNcsTgpI80KWqYa-A-2" value="&lt;span style=&quot;font-size: 24px;&quot;&gt;General Users&lt;/span&gt;" style="rounded=0;whiteSpace=wrap;html=1;" vertex="1" parent="1">
          <mxGeometry x="480" y="140" width="210" height="60" as="geometry" />
        </mxCell>
        <mxCell id="60MkNcsTgpI80KWqYa-A-3" value="" style="endArrow=none;html=1;rounded=0;entryX=0.5;entryY=1;entryDx=0;entryDy=0;" edge="1" parent="1" source="60MkNcsTgpI80KWqYa-A-2" target="60MkNcsTgpI80KWqYa-A-1">
          <mxGeometry width="50" height="50" relative="1" as="geometry">
            <mxPoint x="480" y="360" as="sourcePoint" />
            <mxPoint x="530" y="310" as="targetPoint" />
          </mxGeometry>
        </mxCell>
        <mxCell id="60MkNcsTgpI80KWqYa-A-5" value="" style="endArrow=none;html=1;rounded=0;entryX=0.5;entryY=1;entryDx=0;entryDy=0;exitX=0.404;exitY=-0.01;exitDx=0;exitDy=0;exitPerimeter=0;" edge="1" parent="1" source="60MkNcsTgpI80KWqYa-A-6" target="60MkNcsTgpI80KWqYa-A-2">
          <mxGeometry width="50" height="50" relative="1" as="geometry">
            <mxPoint x="240" y="240" as="sourcePoint" />
            <mxPoint x="530" y="310" as="targetPoint" />
            <Array as="points">
              <mxPoint x="235" y="240" />
              <mxPoint x="585" y="240" />
            </Array>
          </mxGeometry>
        </mxCell>
        <mxCell id="60MkNcsTgpI80KWqYa-A-6" value="&lt;span style=&quot;font-size: 24px;&quot;&gt;User Account Management&lt;/span&gt;" style="rounded=0;whiteSpace=wrap;html=1;" vertex="1" parent="1">
          <mxGeometry x="150" y="260" width="210" height="60" as="geometry" />
        </mxCell>
        <mxCell id="60MkNcsTgpI80KWqYa-A-11" value="&lt;span style=&quot;font-size: 24px;&quot;&gt;Login&lt;/span&gt;" style="rounded=0;whiteSpace=wrap;html=1;" vertex="1" parent="1">
          <mxGeometry x="230" y="353" width="210" height="60" as="geometry" />
        </mxCell>
        <mxCell id="60MkNcsTgpI80KWqYa-A-12" value="&lt;span style=&quot;font-size: 24px;&quot;&gt;Logout&lt;/span&gt;" style="rounded=0;whiteSpace=wrap;html=1;" vertex="1" parent="1">
          <mxGeometry x="230" y="440" width="210" height="60" as="geometry" />
        </mxCell>
        <mxCell id="60MkNcsTgpI80KWqYa-A-13" value="&lt;span style=&quot;font-size: 24px;&quot;&gt;Register&lt;/span&gt;" style="rounded=0;whiteSpace=wrap;html=1;" vertex="1" parent="1">
          <mxGeometry x="230" y="530" width="210" height="60" as="geometry" />
        </mxCell>
        <mxCell id="60MkNcsTgpI80KWqYa-A-14" value="&lt;span style=&quot;font-size: 24px;&quot;&gt;Password Reset&lt;/span&gt;" style="rounded=0;whiteSpace=wrap;html=1;" vertex="1" parent="1">
          <mxGeometry x="230" y="620" width="210" height="60" as="geometry" />
        </mxCell>
        <mxCell id="60MkNcsTgpI80KWqYa-A-15" value="&lt;span style=&quot;font-size: 24px;&quot;&gt;Update Profile&lt;/span&gt;" style="rounded=0;whiteSpace=wrap;html=1;" vertex="1" parent="1">
          <mxGeometry x="230" y="710" width="210" height="60" as="geometry" />
        </mxCell>
        <mxCell id="60MkNcsTgpI80KWqYa-A-16" value="" style="endArrow=none;html=1;rounded=0;exitX=0.25;exitY=1;exitDx=0;exitDy=0;entryX=0;entryY=0.5;entryDx=0;entryDy=0;" edge="1" parent="1" source="60MkNcsTgpI80KWqYa-A-6" target="60MkNcsTgpI80KWqYa-A-11">
          <mxGeometry width="50" height="50" relative="1" as="geometry">
            <mxPoint x="320" y="570" as="sourcePoint" />
            <mxPoint x="370" y="520" as="targetPoint" />
            <Array as="points">
              <mxPoint x="203" y="383" />
            </Array>
          </mxGeometry>
        </mxCell>
        <mxCell id="60MkNcsTgpI80KWqYa-A-17" value="" style="endArrow=none;html=1;rounded=0;exitX=0;exitY=0.5;exitDx=0;exitDy=0;entryX=0.25;entryY=1;entryDx=0;entryDy=0;" edge="1" parent="1" source="60MkNcsTgpI80KWqYa-A-12" target="60MkNcsTgpI80KWqYa-A-6">
          <mxGeometry width="50" height="50" relative="1" as="geometry">
            <mxPoint x="320" y="570" as="sourcePoint" />
            <mxPoint x="370" y="520" as="targetPoint" />
            <Array as="points">
              <mxPoint x="203" y="470" />
            </Array>
          </mxGeometry>
        </mxCell>
        <mxCell id="60MkNcsTgpI80KWqYa-A-18" value="" style="endArrow=none;html=1;rounded=0;exitX=0.25;exitY=1;exitDx=0;exitDy=0;entryX=0;entryY=0.5;entryDx=0;entryDy=0;" edge="1" parent="1" source="60MkNcsTgpI80KWqYa-A-6" target="60MkNcsTgpI80KWqYa-A-13">
          <mxGeometry width="50" height="50" relative="1" as="geometry">
            <mxPoint x="280" y="510" as="sourcePoint" />
            <mxPoint x="330" y="460" as="targetPoint" />
            <Array as="points">
              <mxPoint x="203" y="560" />
            </Array>
          </mxGeometry>
        </mxCell>
        <mxCell id="60MkNcsTgpI80KWqYa-A-19" value="" style="endArrow=none;html=1;rounded=0;exitX=0.25;exitY=1;exitDx=0;exitDy=0;entryX=0;entryY=0.5;entryDx=0;entryDy=0;" edge="1" parent="1" source="60MkNcsTgpI80KWqYa-A-6" target="60MkNcsTgpI80KWqYa-A-14">
          <mxGeometry width="50" height="50" relative="1" as="geometry">
            <mxPoint x="380" y="490" as="sourcePoint" />
            <mxPoint x="430" y="440" as="targetPoint" />
            <Array as="points">
              <mxPoint x="203" y="650" />
            </Array>
          </mxGeometry>
        </mxCell>
        <mxCell id="60MkNcsTgpI80KWqYa-A-20" value="" style="endArrow=none;html=1;rounded=0;exitX=0.25;exitY=1;exitDx=0;exitDy=0;entryX=0;entryY=0.5;entryDx=0;entryDy=0;" edge="1" parent="1" source="60MkNcsTgpI80KWqYa-A-6" target="60MkNcsTgpI80KWqYa-A-15">
          <mxGeometry width="50" height="50" relative="1" as="geometry">
            <mxPoint x="270" y="500" as="sourcePoint" />
            <mxPoint x="320" y="450" as="targetPoint" />
            <Array as="points">
              <mxPoint x="203" y="740" />
            </Array>
          </mxGeometry>
        </mxCell>
        <mxCell id="60MkNcsTgpI80KWqYa-A-21" value="&lt;span style=&quot;font-size: 24px;&quot;&gt;AI Assistant&lt;/span&gt;" style="rounded=0;whiteSpace=wrap;html=1;" vertex="1" parent="1">
          <mxGeometry x="480" y="260" width="210" height="60" as="geometry" />
        </mxCell>
        <mxCell id="60MkNcsTgpI80KWqYa-A-22" value="&lt;span style=&quot;font-size: 24px;&quot;&gt;Response Generation&lt;/span&gt;" style="rounded=0;whiteSpace=wrap;html=1;" vertex="1" parent="1">
          <mxGeometry x="556" y="353" width="210" height="60" as="geometry" />
        </mxCell>
        <mxCell id="60MkNcsTgpI80KWqYa-A-27" value="" style="endArrow=none;html=1;rounded=0;exitX=0.25;exitY=1;exitDx=0;exitDy=0;entryX=0;entryY=0.5;entryDx=0;entryDy=0;" edge="1" parent="1" source="60MkNcsTgpI80KWqYa-A-21" target="60MkNcsTgpI80KWqYa-A-22">
          <mxGeometry width="50" height="50" relative="1" as="geometry">
            <mxPoint x="540" y="340" as="sourcePoint" />
            <mxPoint x="710" y="340" as="targetPoint" />
            <Array as="points">
              <mxPoint x="533" y="383" />
            </Array>
          </mxGeometry>
        </mxCell>
        <mxCell id="60MkNcsTgpI80KWqYa-A-28" value="" style="endArrow=none;html=1;rounded=0;entryX=0.5;entryY=1;entryDx=0;entryDy=0;" edge="1" parent="1" source="60MkNcsTgpI80KWqYa-A-21" target="60MkNcsTgpI80KWqYa-A-2">
          <mxGeometry width="50" height="50" relative="1" as="geometry">
            <mxPoint x="680" y="280" as="sourcePoint" />
            <mxPoint x="730" y="230" as="targetPoint" />
            <Array as="points">
              <mxPoint x="585" y="240" />
            </Array>
          </mxGeometry>
        </mxCell>
        <mxCell id="60MkNcsTgpI80KWqYa-A-29" value="&lt;span style=&quot;font-size: 24px;&quot;&gt;Pet Management&lt;/span&gt;" style="rounded=0;whiteSpace=wrap;html=1;" vertex="1" parent="1">
          <mxGeometry x="760" y="260" width="210" height="60" as="geometry" />
        </mxCell>
        <mxCell id="60MkNcsTgpI80KWqYa-A-30" value="" style="endArrow=none;html=1;rounded=0;entryX=0.5;entryY=1;entryDx=0;entryDy=0;exitX=0.571;exitY=0;exitDx=0;exitDy=0;exitPerimeter=0;" edge="1" parent="1" source="60MkNcsTgpI80KWqYa-A-29" target="60MkNcsTgpI80KWqYa-A-2">
          <mxGeometry width="50" height="50" relative="1" as="geometry">
            <mxPoint x="680" y="280" as="sourcePoint" />
            <mxPoint x="730" y="230" as="targetPoint" />
            <Array as="points">
              <mxPoint x="880" y="240" />
              <mxPoint x="585" y="240" />
            </Array>
          </mxGeometry>
        </mxCell>
        <mxCell id="60MkNcsTgpI80KWqYa-A-31" value="&lt;span style=&quot;font-size: 24px;&quot;&gt;Add Pet&lt;/span&gt;" style="rounded=0;whiteSpace=wrap;html=1;" vertex="1" parent="1">
          <mxGeometry x="850" y="353" width="210" height="60" as="geometry" />
        </mxCell>
        <mxCell id="60MkNcsTgpI80KWqYa-A-32" value="&lt;span style=&quot;font-size: 24px;&quot;&gt;Edit Pet&lt;/span&gt;" style="rounded=0;whiteSpace=wrap;html=1;" vertex="1" parent="1">
          <mxGeometry x="850" y="440" width="210" height="60" as="geometry" />
        </mxCell>
        <mxCell id="60MkNcsTgpI80KWqYa-A-33" value="&lt;span style=&quot;font-size: 24px;&quot;&gt;Delete Pet&lt;/span&gt;" style="rounded=0;whiteSpace=wrap;html=1;" vertex="1" parent="1">
          <mxGeometry x="850" y="530" width="210" height="60" as="geometry" />
        </mxCell>
        <mxCell id="60MkNcsTgpI80KWqYa-A-34" value="&lt;span style=&quot;font-size: 24px;&quot;&gt;View Pet&lt;/span&gt;" style="rounded=0;whiteSpace=wrap;html=1;" vertex="1" parent="1">
          <mxGeometry x="850" y="620" width="210" height="60" as="geometry" />
        </mxCell>
        <mxCell id="60MkNcsTgpI80KWqYa-A-35" value="" style="endArrow=none;html=1;rounded=0;exitX=0.25;exitY=1;exitDx=0;exitDy=0;entryX=0;entryY=0.5;entryDx=0;entryDy=0;" edge="1" parent="1" source="60MkNcsTgpI80KWqYa-A-29" target="60MkNcsTgpI80KWqYa-A-31">
          <mxGeometry width="50" height="50" relative="1" as="geometry">
            <mxPoint x="790" y="440" as="sourcePoint" />
            <mxPoint x="840" y="390" as="targetPoint" />
            <Array as="points">
              <mxPoint x="813" y="383" />
            </Array>
          </mxGeometry>
        </mxCell>
        <mxCell id="60MkNcsTgpI80KWqYa-A-36" value="" style="endArrow=none;html=1;rounded=0;exitX=0.25;exitY=1;exitDx=0;exitDy=0;entryX=0;entryY=0.5;entryDx=0;entryDy=0;" edge="1" parent="1" source="60MkNcsTgpI80KWqYa-A-29" target="60MkNcsTgpI80KWqYa-A-32">
          <mxGeometry width="50" height="50" relative="1" as="geometry">
            <mxPoint x="790" y="440" as="sourcePoint" />
            <mxPoint x="840" y="390" as="targetPoint" />
            <Array as="points">
              <mxPoint x="813" y="470" />
            </Array>
          </mxGeometry>
        </mxCell>
        <mxCell id="60MkNcsTgpI80KWqYa-A-37" value="" style="endArrow=none;html=1;rounded=0;exitX=0.25;exitY=1;exitDx=0;exitDy=0;entryX=0;entryY=0.5;entryDx=0;entryDy=0;" edge="1" parent="1" source="60MkNcsTgpI80KWqYa-A-29" target="60MkNcsTgpI80KWqYa-A-33">
          <mxGeometry width="50" height="50" relative="1" as="geometry">
            <mxPoint x="790" y="440" as="sourcePoint" />
            <mxPoint x="840" y="390" as="targetPoint" />
            <Array as="points">
              <mxPoint x="813" y="560" />
            </Array>
          </mxGeometry>
        </mxCell>
        <mxCell id="60MkNcsTgpI80KWqYa-A-38" value="" style="endArrow=none;html=1;rounded=0;exitX=0.25;exitY=1;exitDx=0;exitDy=0;entryX=0;entryY=0.5;entryDx=0;entryDy=0;" edge="1" parent="1" source="60MkNcsTgpI80KWqYa-A-29" target="60MkNcsTgpI80KWqYa-A-34">
          <mxGeometry width="50" height="50" relative="1" as="geometry">
            <mxPoint x="790" y="440" as="sourcePoint" />
            <mxPoint x="840" y="390" as="targetPoint" />
            <Array as="points">
              <mxPoint x="813" y="650" />
            </Array>
          </mxGeometry>
        </mxCell>
        <mxCell id="60MkNcsTgpI80KWqYa-A-39" value="&lt;span style=&quot;font-size: 24px;&quot;&gt;Information Management&lt;/span&gt;" style="rounded=0;whiteSpace=wrap;html=1;" vertex="1" parent="1">
          <mxGeometry x="1095" y="260" width="210" height="60" as="geometry" />
        </mxCell>
        <mxCell id="60MkNcsTgpI80KWqYa-A-40" value="&lt;span style=&quot;font-size: 24px;&quot;&gt;View About Us&lt;/span&gt;" style="rounded=0;whiteSpace=wrap;html=1;" vertex="1" parent="1">
          <mxGeometry x="1185" y="353" width="210" height="60" as="geometry" />
        </mxCell>
        <mxCell id="60MkNcsTgpI80KWqYa-A-41" value="&lt;span style=&quot;font-size: 24px;&quot;&gt;Send Feedback&lt;/span&gt;" style="rounded=0;whiteSpace=wrap;html=1;" vertex="1" parent="1">
          <mxGeometry x="1185" y="440" width="210" height="60" as="geometry" />
        </mxCell>
        <mxCell id="60MkNcsTgpI80KWqYa-A-44" value="" style="endArrow=none;html=1;rounded=0;exitX=0.5;exitY=1;exitDx=0;exitDy=0;entryX=0.5;entryY=0;entryDx=0;entryDy=0;" edge="1" parent="1" source="60MkNcsTgpI80KWqYa-A-2" target="60MkNcsTgpI80KWqYa-A-39">
          <mxGeometry width="50" height="50" relative="1" as="geometry">
            <mxPoint x="770" y="370" as="sourcePoint" />
            <mxPoint x="820" y="320" as="targetPoint" />
            <Array as="points">
              <mxPoint x="585" y="240" />
              <mxPoint x="1200" y="240" />
            </Array>
          </mxGeometry>
        </mxCell>
        <mxCell id="60MkNcsTgpI80KWqYa-A-50" value="" style="endArrow=none;html=1;rounded=0;exitX=0.25;exitY=1;exitDx=0;exitDy=0;entryX=0;entryY=0.5;entryDx=0;entryDy=0;" edge="1" parent="1" source="60MkNcsTgpI80KWqYa-A-39" target="60MkNcsTgpI80KWqYa-A-40">
          <mxGeometry width="50" height="50" relative="1" as="geometry">
            <mxPoint x="1270" y="480" as="sourcePoint" />
            <mxPoint x="1320" y="430" as="targetPoint" />
            <Array as="points">
              <mxPoint x="1147" y="383" />
            </Array>
          </mxGeometry>
        </mxCell>
        <mxCell id="60MkNcsTgpI80KWqYa-A-51" value="" style="endArrow=none;html=1;rounded=0;entryX=0.25;entryY=1;entryDx=0;entryDy=0;exitX=0;exitY=0.5;exitDx=0;exitDy=0;" edge="1" parent="1" source="60MkNcsTgpI80KWqYa-A-41" target="60MkNcsTgpI80KWqYa-A-39">
          <mxGeometry width="50" height="50" relative="1" as="geometry">
            <mxPoint x="1270" y="480" as="sourcePoint" />
            <mxPoint x="1320" y="430" as="targetPoint" />
            <Array as="points">
              <mxPoint x="1147" y="470" />
            </Array>
          </mxGeometry>
        </mxCell>
      </root>
    </mxGraphModel>
  </diagram>
</mxfile>
